<?xml version="1.0" encoding="UTF-8"?>
<svg id="Layer_2" data-name="Layer 2" xmlns="http://www.w3.org/2000/svg" xmlns:xlink="http://www.w3.org/1999/xlink" viewBox="0 0 893.95 443.12">
  <defs>
    <style>
      .cls-1 {
        fill: url(#linear-gradient);
        stroke-width: 0px;
      }
    </style>
    <linearGradient id="linear-gradient" x1="446.98" y1="34.48" x2="446.98" y2="438.05" gradientUnits="userSpaceOnUse">
      <stop offset="0" stop-color="#026fe6"/>
      <stop offset="1" stop-color="#26cefb"/>
    </linearGradient>
  </defs>
  <g id="Layer_1-2" data-name="Layer 1">
    <path class="cls-1" d="M839.79,10.04c-44.98-22.34-100.35-6.24-126.37,36.72-15.78,26.05-17.89,56.29-8.64,82.68,12.18,34.73,8.04,73.08-9.9,105.2l-.74,1.34c-.12.21-.23.41-.35.62-19.51,34.43-65.82,42.58-96.11,17.12-15.18-12.76-28.86-27.35-40.72-43.49l-1-1.36c-26.12-35.57-42.03-77.25-48.68-120.88-.04-.3-.12-.6-.17-.9-.09-.54-.19-1.07-.29-1.6-.12-.61-.23-1.22-.38-1.81-.12-.49-.25-.97-.36-1.45-.26-1.05-.55-2.08-.89-3.11-.16-.55-.33-1.12-.52-1.66-.17-.52-.36-1.03-.57-1.54-.23-.64-.48-1.28-.74-1.9-.17-.42-.33-.83-.52-1.23-.44-1.02-.9-2.03-1.41-3.02-.01-.03-.03-.06-.04-.09-.58-1.16-1.22-2.29-1.87-3.43-.03-.03-.04-.07-.07-.1-.65-1.1-1.35-2.19-2.06-3.25-.03-.03-.06-.07-.09-.12-1.73-2.53-3.66-4.92-5.79-7.2-.17-.19-.36-.39-.54-.58-.42-.44-.86-.86-1.29-1.28-.29-.29-.58-.6-.89-.87-.41-.38-.83-.74-1.23-1.12-.33-.29-.67-.6-1-.89-.45-.38-.91-.75-1.38-1.12-.29-.23-.57-.46-.86-.68-.58-.45-1.16-.87-1.76-1.31-.13-.09-.26-.19-.39-.28-.41-.29-.8-.58-1.22-.86-9.97-6.71-21.37-10.03-32.74-10.24-.41-.01-.81,0-1.22,0s-.83-.01-1.23,0c-11.37.2-22.76,3.53-32.74,10.24-.42.28-.81.57-1.22.86-.13.09-.26.19-.39.28-.6.44-1.18.86-1.76,1.31-.29.22-.57.45-.86.68-.46.36-.93.74-1.38,1.12-.33.29-.67.6-1,.89-.41.38-.83.74-1.23,1.12-.29.28-.6.58-.89.87-.44.42-.87.84-1.29,1.28-.17.19-.36.39-.54.58-2.13,2.28-4.07,4.67-5.79,7.2-.03.04-.06.09-.09.12-.71,1.06-1.41,2.15-2.06,3.25-.01.03-.04.07-.07.1-.65,1.13-1.29,2.26-1.87,3.43-.01.03-.03.06-.04.09-.49.99-.97,2-1.41,3.02-.19.41-.35.81-.52,1.23-.26.62-.51,1.26-.74,1.9-.2.51-.39,1.02-.57,1.54-.19.54-.36,1.1-.52,1.66-.33,1.03-.62,2.06-.89,3.11-.12.48-.25.96-.36,1.45-.13.6-.26,1.21-.38,1.81-.1.52-.2,1.06-.29,1.6-.06.31-.12.6-.17.9-6.65,43.63-22.56,85.31-48.68,120.88l-1,1.36c-11.86,16.14-25.55,30.73-40.72,43.49-30.29,25.47-76.6,17.31-96.11-17.12-.12-.21-.23-.41-.35-.62l-.74-1.34c-17.94-32.11-22.08-70.47-9.9-105.2,9.25-26.39,7.14-56.64-8.64-82.68C154.51,3.8,99.14-12.3,54.16,10.04,4.09,34.9-14.58,96.2,12.26,144.53c14.07,25.32,37.76,41.9,63.97,47.72,36.38,8.09,67.2,32.13,85.38,64.65l.17.33c15.53,27.79,20.72,60.38,13.53,91.35-.93,3.6-1.57,7.24-1.96,10.92-.04.45-.09.9-.13,1.36-.04.49-.09,1-.12,1.5-.07.87-.12,1.74-.15,2.63v.17c-.44,12.59,2.28,25.42,8.46,37.31.19.35.36.7.55,1.05.15.26.28.52.42.78.15.26.29.51.45.75.39.71.81,1.41,1.23,2.11.2.32.39.65.61.97.6.94,1.21,1.87,1.84,2.79.07.09.13.19.19.28,1.48,2.09,3.06,4.12,4.78,6.07.12.15.25.29.38.44.68.75,1.38,1.52,2.09,2.26.25.26.51.51.77.77.58.6,1.19,1.19,1.8,1.76.35.33.7.65,1.05.97.25.22.48.45.73.67s.49.42.75.62c.57.49,1.13.97,1.71,1.44.48.39.94.77,1.44,1.15.51.39,1.03.78,1.57,1.18.6.44,1.2.87,1.81,1.29.36.25.73.49,1.09.74.81.54,1.63,1.06,2.45,1.55.13.09.26.16.41.25,9.92,5.97,20.79,9.42,31.79,10.44.6.06,1.19.09,1.77.13.6.03,1.19.09,1.77.12,11.05.54,22.3-1.36,32.97-5.88.15-.06.28-.12.42-.19.89-.38,1.77-.78,2.64-1.2.39-.17.78-.36,1.18-.57.67-.33,1.34-.67,2-1.03.57-.3,1.13-.61,1.7-.94.54-.29,1.06-.61,1.58-.91.64-.39,1.28-.78,1.9-1.19.28-.17.55-.33.83-.51.28-.19.55-.38.83-.57.39-.28.78-.54,1.18-.81.68-.49,1.35-.99,2.02-1.5.29-.22.6-.44.89-.67.8-.62,1.58-1.26,2.35-1.92.16-.14.32-.28.48-.41,1.96-1.7,3.82-3.47,5.56-5.34.09-.09.16-.17.25-.26.75-.81,1.48-1.63,2.19-2.47.28-.32.54-.64.8-.97.49-.58.97-1.19,1.44-1.79.19-.25.39-.48.58-.73.28-.36.52-.73.78-1.07.06-.07.1-.14.16-.22,8.62-11.92,13.28-25.55,14.17-39.32,3.16-49.23,19.09-96.79,48.3-136.56l2.77-3.76c8.4-11.45,17.76-22.03,27.94-31.74,24.75-23.62,63.62-23.62,88.37,0,10.17,9.71,19.53,20.29,27.93,31.74l2.77,3.76c29.21,39.77,45.14,87.33,48.3,136.56.89,13.76,5.55,27.4,14.17,39.32.06.07.1.14.16.22.26.35.52.71.78,1.07.19.25.39.48.58.73.46.6.94,1.21,1.44,1.79.26.33.52.65.8.97.71.84,1.45,1.66,2.19,2.47.09.09.16.17.25.26,1.74,1.87,3.6,3.64,5.56,5.34.16.13.32.26.48.41.77.65,1.55,1.29,2.35,1.92.29.23.6.45.89.67.67.51,1.34,1,2.02,1.5.39.28.78.54,1.18.81.28.19.55.38.83.57.28.17.55.33.83.51.62.41,1.26.8,1.9,1.19.52.3,1.05.62,1.58.91.57.33,1.13.64,1.7.94.67.36,1.34.7,2,1.03.39.2.78.39,1.18.57.87.42,1.76.83,2.64,1.2.15.07.28.13.42.19,10.67,4.52,21.92,6.42,32.97,5.88.58-.03,1.18-.09,1.77-.12.58-.04,1.18-.07,1.77-.13,11-1.02,21.88-4.47,31.79-10.44.15-.09.28-.16.41-.25.83-.49,1.64-1.02,2.45-1.55.36-.25.73-.49,1.09-.74.61-.42,1.22-.86,1.83-1.29.52-.39,1.05-.78,1.55-1.18.49-.38.96-.75,1.44-1.15.58-.46,1.15-.94,1.73-1.44.25-.2.49-.41.74-.62.25-.22.48-.45.73-.67.35-.32.7-.64,1.05-.97.61-.57,1.22-1.16,1.8-1.76.26-.26.52-.51.77-.77.71-.74,1.41-1.51,2.09-2.26.13-.15.26-.29.39-.44,1.7-1.95,3.3-3.98,4.76-6.07.06-.09.12-.19.19-.28.64-.91,1.25-1.84,1.84-2.79.22-.32.41-.65.61-.97.42-.7.84-1.39,1.23-2.11.16-.25.3-.49.45-.75.15-.26.28-.52.42-.78.19-.35.36-.7.55-1.05,6.18-11.89,8.9-24.72,8.46-37.31v-.17c-.03-.89-.07-1.76-.15-2.63-.03-.49-.07-1-.12-1.5-.04-.46-.09-.91-.13-1.36-.39-3.67-1.03-7.32-1.96-10.92-7.19-30.97-2-63.56,13.53-91.35l.17-.33c18.18-32.52,49-56.56,85.38-64.65,26.21-5.82,49.9-22.4,63.97-47.72,26.84-48.33,8.17-109.63-41.9-134.48ZM97.63,141.17c-24.06,0-43.55-19.5-43.55-43.54s19.5-43.55,43.55-43.55,43.54,19.5,43.54,43.55-19.5,43.54-43.54,43.54ZM796.32,141.17c-24.04,0-43.54-19.5-43.54-43.54s19.5-43.55,43.54-43.55,43.55,19.5,43.55,43.55-19.5,43.54-43.55,43.54Z"/>
  </g>
</svg>